<svg width="23" height="23" viewBox="0 0 23 23" fill="none" xmlns="http://www.w3.org/2000/svg">
<rect width="22.2782" height="22.2782" rx="11.1391" fill="url(#paint0_linear_272_3175)"/>
<path d="M7.51836 6.25982C7.51817 6.59377 7.38538 6.914 7.14908 7.14998C6.91285 7.38603 6.5925 7.5185 6.25855 7.51837C5.9246 7.51818 5.60438 7.3854 5.36836 7.1491C5.13233 6.91286 4.99984 6.59251 5 6.25855C5.00017 5.9246 5.13299 5.60438 5.36925 5.36836C5.60551 5.13233 5.92586 4.99984 6.25981 5C6.59376 5.00017 6.91398 5.13299 7.15003 5.36925C7.38601 5.60551 7.51855 5.92586 7.51836 6.25982ZM7.55614 8.45078H5.03778V16.3332H7.55614V8.45078ZM11.5351 8.45078H9.0294V16.3332H11.5099V12.1969C11.5099 9.89256 14.5131 9.67849 14.5131 12.1969V16.3332H17V11.3406C17 7.45604 12.5551 7.60085 11.5099 9.50849L11.5351 8.45078Z" fill="white"/>
<defs>
<linearGradient id="paint0_linear_272_3175" x1="11.1391" y1="0" x2="11.1391" y2="22.2782" gradientUnits="userSpaceOnUse">
<stop stop-color="#767BE7"/>
<stop offset="1" stop-color="#4E54C8"/>
</linearGradient>
</defs>
</svg>
