<svg width="23" height="23" viewBox="0 0 23 23" fill="none" xmlns="http://www.w3.org/2000/svg">
<rect x="0.175781" width="22.2782" height="22.2782" rx="11.1391" fill="url(#paint0_linear_271_3168)"/>
<path d="M11.3127 6.30498C12.8878 6.30498 13.0728 6.31198 13.6954 6.34C14.2712 6.3658 14.5823 6.46165 14.7906 6.54348C15.0667 6.65111 15.2636 6.77757 15.4693 6.98358C15.6749 7.18965 15.8039 7.38616 15.9094 7.66221C15.989 7.87051 16.0874 8.18202 16.1128 8.75738C16.1409 9.37999 16.1479 9.5647 16.1479 11.1402C16.1479 12.7156 16.1409 12.9003 16.1128 13.5229C16.0871 14.0987 15.9912 14.4098 15.9094 14.6181C15.8017 14.8942 15.6753 15.091 15.4693 15.2967C15.2632 15.5024 15.0667 15.6314 14.7906 15.7368C14.5823 15.8165 14.2709 15.9149 13.6954 15.9403C13.0728 15.9683 12.8882 15.9753 11.3127 15.9753C9.7372 15.9753 9.55255 15.9683 8.92994 15.9403C8.35418 15.9145 8.04301 15.8187 7.83477 15.7368C7.55865 15.6292 7.36182 15.5028 7.15614 15.2967C6.95046 15.0907 6.82144 14.8942 6.71601 14.6181C6.63638 14.4098 6.53797 14.0983 6.51253 13.5229C6.48451 12.9003 6.47751 12.7156 6.47751 11.1402C6.47751 9.5647 6.48451 9.37999 6.51253 8.75738C6.53833 8.18162 6.63417 7.87051 6.71601 7.66221C6.82367 7.38616 6.95007 7.18932 7.15614 6.98358C7.36221 6.7779 7.55865 6.64888 7.83477 6.54348C8.04301 6.46385 8.35451 6.36543 8.92994 6.34C9.55255 6.3094 9.7372 6.30498 11.3127 6.30498ZM11.3127 5.24225C9.71178 5.24225 9.51049 5.24925 8.88093 5.27727C8.25354 5.30528 7.82521 5.40592 7.45106 5.55116C7.06251 5.70081 6.73482 5.90466 6.4071 6.23236C6.0794 6.5601 5.87814 6.89001 5.72589 7.27628C5.58066 7.65081 5.48003 8.07914 5.45201 8.70876C5.424 9.33616 5.41699 9.53738 5.41699 11.1379C5.41699 12.7385 5.424 12.9401 5.45201 13.5697C5.48003 14.1971 5.58066 14.6255 5.72589 15.0022C5.87556 15.3907 6.0794 15.7184 6.4071 16.0461C6.73482 16.3738 7.06473 16.5751 7.45106 16.7273C7.82553 16.8725 8.25387 16.9732 8.88349 17.0012C9.51311 17.0292 9.71217 17.0362 11.3153 17.0362C12.9184 17.0362 13.1175 17.0292 13.7471 17.0012C14.3744 16.9732 14.8028 16.8725 15.1795 16.7273C15.5681 16.5777 15.8957 16.3738 16.2234 16.0461C16.5511 15.7184 16.7524 15.3885 16.9046 15.0022C17.0499 14.6277 17.1505 14.1994 17.1785 13.5697C17.2066 12.9401 17.2136 12.7411 17.2136 11.1379C17.2136 9.53483 17.2066 9.33576 17.1785 8.70614C17.1505 8.07875 17.0499 7.65042 16.9046 7.27372C16.755 6.88516 16.5511 6.55748 16.2234 6.22978C15.8957 5.90208 15.5658 5.70081 15.1795 5.54857C14.805 5.40334 14.3766 5.3027 13.7471 5.27469C13.1152 5.24889 12.9135 5.24225 11.3127 5.24225ZM11.3127 8.10935C9.64173 8.10935 8.28414 9.46439 8.28414 11.1379C8.28414 12.8115 9.64173 14.1665 11.3127 14.1665C12.9837 14.1665 14.3413 12.8089 14.3413 11.1379C14.3413 9.46701 12.9837 8.10935 11.3127 8.10935ZM11.3127 13.1038C10.2267 13.1038 9.34687 12.2239 9.34687 11.1379C9.34687 10.052 10.2267 9.17209 11.3127 9.17209C12.3987 9.17209 13.2785 10.052 13.2785 11.1379C13.2785 12.2239 12.3987 13.1038 11.3127 13.1038ZM15.1673 7.98996C15.1673 8.38029 14.8511 8.69658 14.4607 8.69658C14.0703 8.69658 13.754 8.38029 13.754 7.98996C13.754 7.59957 14.0703 7.28329 14.4607 7.28329C14.8511 7.28329 15.1673 7.59957 15.1673 7.98996Z" fill="#F6F6F6"/>
<defs>
<linearGradient id="paint0_linear_271_3168" x1="11.3149" y1="0" x2="11.3149" y2="22.2782" gradientUnits="userSpaceOnUse">
<stop stop-color="#767BE7"/>
<stop offset="1" stop-color="#4E54C8"/>
</linearGradient>
</defs>
</svg>
